REM DIRINDEX 1\2,1\3,1\4
REM DIRNAME cjc151,folder01,folder02,folder03
TITLE ""
FILE "172 172_Lesson 4_TOEFL_3900.mp3" MP3
  TRACK 01 AUDIO
    TITLE "4:cjc151_7499"
    INDEX 01 00:00:00
  TRACK 02 AUDIO
    TITLE "0:"
    INDEX 01 00:01:44
  TRACK 03 AUDIO
    TITLE "2:cjc151_7500"
    INDEX 01 00:02:24
  TRACK 04 AUDIO
    TITLE "0:"
    INDEX 01 00:03:57
  TRACK 05 AUDIO
    TITLE "3:cjc151_7501"
    INDEX 01 00:05:34
  TRACK 06 AUDIO
    TITLE "0:"
    INDEX 01 00:09:55
  TRACK 07 AUDIO
    TITLE "2:cjc151_7502"
    INDEX 01 00:11:33
  TRACK 08 AUDIO
    TITLE "0:"
    INDEX 01 00:12:44
  TRACK 09 AUDIO
    TITLE "3:cjc151_7503"
    INDEX 01 00:14:23
  TRACK 10 AUDIO
    TITLE "0:"
    INDEX 01 00:19:20
  TRACK 11 AUDIO
    TITLE "2:cjc151_7504"
    INDEX 01 00:20:73
  TRACK 12 AUDIO
    TITLE "0:"
    INDEX 01 00:22:50
  TRACK 13 AUDIO
    TITLE "3:cjc151_7505"
    INDEX 01 00:24:31
  TRACK 14 AUDIO
    TITLE "0:"
    INDEX 01 00:29:40
  TRACK 15 AUDIO
    TITLE "2:cjc151_7506"
    INDEX 01 00:31:18
  TRACK 16 AUDIO
    TITLE "0:"
    INDEX 01 00:32:19
  TRACK 17 AUDIO
    TITLE "3:cjc151_7507"
    INDEX 01 00:34:02
  TRACK 18 AUDIO
    TITLE "0:"
    INDEX 01 00:39:03
  TRACK 19 AUDIO
    TITLE "2:cjc151_7508"
    INDEX 01 00:40:66
  TRACK 20 AUDIO
    TITLE "0:"
    INDEX 01 00:41:71
  TRACK 21 AUDIO
    TITLE "3:cjc151_7509"
    INDEX 01 00:43:58
  TRACK 22 AUDIO
    TITLE "0:"
    INDEX 01 00:47:56
  TRACK 23 AUDIO
    TITLE "2:cjc151_7510"
    INDEX 01 00:49:33
  TRACK 24 AUDIO
    TITLE "0:"
    INDEX 01 00:51:01
  TRACK 25 AUDIO
    TITLE "3:cjc151_7511"
    INDEX 01 00:52:51
  TRACK 26 AUDIO
    TITLE "0:"
    INDEX 01 00:57:03
  TRACK 27 AUDIO
    TITLE "2:cjc151_7512"
    INDEX 01 00:58:58
  TRACK 28 AUDIO
    TITLE "0:"
    INDEX 01 01:00:15
  TRACK 29 AUDIO
    TITLE "3:cjc151_7513"
    INDEX 01 01:01:70
  TRACK 30 AUDIO
    TITLE "0:"
    INDEX 01 01:06:02
  TRACK 31 AUDIO
    TITLE "2:cjc151_7514"
    INDEX 01 01:07:55
  TRACK 32 AUDIO
    TITLE "0:"
    INDEX 01 01:08:72
  TRACK 33 AUDIO
    TITLE "3:cjc151_7515"
    INDEX 01 01:10:53
  TRACK 34 AUDIO
    TITLE "0:"
    INDEX 01 01:15:44
  TRACK 35 AUDIO
    TITLE "2:cjc151_7516"
    INDEX 01 01:17:24
  TRACK 36 AUDIO
    TITLE "0:"
    INDEX 01 01:18:47
  TRACK 37 AUDIO
    TITLE "3:cjc151_7517"
    INDEX 01 01:20:18
  TRACK 38 AUDIO
    TITLE "0:"
    INDEX 01 01:24:45
  TRACK 39 AUDIO
    TITLE "2:cjc151_7518"
    INDEX 01 01:26:23
  TRACK 40 AUDIO
    TITLE "0:"
    INDEX 01 01:27:40
  TRACK 41 AUDIO
    TITLE "3:cjc151_7519"
    INDEX 01 01:29:15
  TRACK 42 AUDIO
    TITLE "0:"
    INDEX 01 01:32:68
  TRACK 43 AUDIO
    TITLE "2:cjc151_7520"
    INDEX 01 01:34:48
  TRACK 44 AUDIO
    TITLE "0:"
    INDEX 01 01:35:51
  TRACK 45 AUDIO
    TITLE "3:cjc151_7521"
    INDEX 01 01:37:32
  TRACK 46 AUDIO
    TITLE "0:"
    INDEX 01 01:43:02
  TRACK 47 AUDIO
    TITLE "2:cjc151_7522"
    INDEX 01 01:44:56
  TRACK 48 AUDIO
    TITLE "0:"
    INDEX 01 01:46:02
  TRACK 49 AUDIO
    TITLE "3:cjc151_7523"
    INDEX 01 01:47:48
  TRACK 50 AUDIO
    TITLE "0:"
    INDEX 01 01:52:49
  TRACK 51 AUDIO
    TITLE "2:cjc151_7524"
    INDEX 01 01:54:29
  TRACK 52 AUDIO
    TITLE "0:"
    INDEX 01 01:55:30
  TRACK 53 AUDIO
    TITLE "3:cjc151_7525"
    INDEX 01 01:57:09
  TRACK 54 AUDIO
    TITLE "0:"
    INDEX 01 02:01:68
  TRACK 55 AUDIO
    TITLE "2:cjc151_7526"
    INDEX 01 02:03:49
  TRACK 56 AUDIO
    TITLE "0:"
    INDEX 01 02:05:68
  TRACK 57 AUDIO
    TITLE "3:cjc151_7527"
    INDEX 01 02:07:47
  TRACK 58 AUDIO
    TITLE "0:"
    INDEX 01 02:12:56
  TRACK 59 AUDIO
    TITLE "2:cjc151_7528"
    INDEX 01 02:14:35
  TRACK 60 AUDIO
    TITLE "0:"
    INDEX 01 02:16:23
  TRACK 61 AUDIO
    TITLE "3:cjc151_7529"
    INDEX 01 02:18:02
  TRACK 62 AUDIO
    TITLE "0:"
    INDEX 01 02:22:27
  TRACK 63 AUDIO
    TITLE "2:cjc151_7530"
    INDEX 01 02:24:10
  TRACK 64 AUDIO
    TITLE "0:"
    INDEX 01 02:26:11
  TRACK 65 AUDIO
    TITLE "3:cjc151_7531"
    INDEX 01 02:27:65
  TRACK 66 AUDIO
    TITLE "0:"
    INDEX 01 02:31:48
  TRACK 67 AUDIO
    TITLE "2:cjc151_7532"
    INDEX 01 02:33:25
  TRACK 68 AUDIO
    TITLE "0:"
    INDEX 01 02:34:73
  TRACK 69 AUDIO
    TITLE "3:cjc151_7533"
    INDEX 01 02:36:53
  TRACK 70 AUDIO
    TITLE "0:"
    INDEX 01 02:40:50
  TRACK 71 AUDIO
    TITLE "2:cjc151_7534"
    INDEX 01 02:42:30
  TRACK 72 AUDIO
    TITLE "0:"
    INDEX 01 02:43:53
  TRACK 73 AUDIO
    TITLE "3:cjc151_7535"
    INDEX 01 02:45:34
  TRACK 74 AUDIO
    TITLE "0:"
    INDEX 01 02:49:71
  TRACK 75 AUDIO
    TITLE "2:cjc151_7536"
    INDEX 01 02:51:50
  TRACK 76 AUDIO
    TITLE "0:"
    INDEX 01 02:53:53
  TRACK 77 AUDIO
    TITLE "3:cjc151_7537"
    INDEX 01 02:55:30
  TRACK 78 AUDIO
    TITLE "0:"
    INDEX 01 02:59:67
  TRACK 79 AUDIO
    TITLE "2:cjc151_7538"
    INDEX 01 03:01:45
  TRACK 80 AUDIO
    TITLE "0:"
    INDEX 01 03:02:62
  TRACK 81 AUDIO
    TITLE "3:cjc151_7539"
    INDEX 01 03:04:41
  TRACK 82 AUDIO
    TITLE "0:"
    INDEX 01 03:08:45
  TRACK 83 AUDIO
    TITLE "2:cjc151_7540"
    INDEX 01 03:10:28
  TRACK 84 AUDIO
    TITLE "0:"
    INDEX 01 03:12:00
  TRACK 85 AUDIO
    TITLE "3:cjc151_7541"
    INDEX 01 03:13:46
  TRACK 86 AUDIO
    TITLE "0:"
    INDEX 01 03:18:06
  TRACK 87 AUDIO
    TITLE "2:cjc151_7542"
    INDEX 01 03:19:60
  TRACK 88 AUDIO
    TITLE "0:"
    INDEX 01 03:20:60
  TRACK 89 AUDIO
    TITLE "3:cjc151_7543"
    INDEX 01 03:22:37
  TRACK 90 AUDIO
    TITLE "0:"
    INDEX 01 03:27:15
